<svg width="20" height="20" viewBox="0 0 20 20" fill="none" xmlns="http://www.w3.org/2000/svg">
<g opacity="0.8">
<path fill-rule="evenodd" clip-rule="evenodd" d="M11.876 3.41699C12.2074 3.41699 12.5254 3.54886 12.7598 3.7832L15.3838 6.40723C15.618 6.64162 15.75 6.95963 15.75 7.29102V17.084C15.7496 18.1882 14.8543 19.084 13.75 19.084H3.75C2.64565 19.084 1.75036 18.1882 1.75 17.084V5.41699C1.75 4.31242 2.64543 3.41699 3.75 3.41699H11.876ZM3.75 4.91699C3.47386 4.91699 3.25 5.14085 3.25 5.41699V17.084C3.25036 17.3598 3.47408 17.584 3.75 17.584H13.75C14.0259 17.584 14.2496 17.3598 14.25 17.084V8.25H12.167C11.4767 8.25 10.9172 7.6902 10.917 7V4.91699H3.75ZM12.417 6.75H13.6055L12.417 5.56152V6.75Z" fill="#001EFF"/>
<path d="M13.8965 0.931641C14.0407 0.960436 14.1747 1.03119 14.2803 1.13672L18.0303 4.88672C18.1708 5.02736 18.25 5.21816 18.25 5.41699V15.834C18.2496 16.2478 17.9138 16.5838 17.5 16.584C17.0862 16.5838 16.7504 16.2478 16.75 15.834V5.72754L13.4395 2.41699H5.83301C5.41906 2.41681 5.08319 2.08094 5.08301 1.66699C5.08301 1.25289 5.41895 0.917174 5.83301 0.916992H13.75L13.8965 0.931641Z" fill="#001EFF"/>
</g>
</svg>
