<svg width="250" height="150" viewBox="0 0 250 150" fill="none" xmlns="http://www.w3.org/2000/svg">
<mask id="path-1-inside-1_8851_223464" fill="white">
<path d="M250 35L250 115L196 115C187.163 115 180 107.837 180 99L180 51C180 42.1634 187.163 35 196 35L250 35Z"/>
</mask>
<path d="M250 35L250 115L196 115C187.163 115 180 107.837 180 99L180 51C180 42.1634 187.163 35 196 35L250 35Z" fill="url(#paint0_linear_8851_223464)" fill-opacity="0.5"/>
<path d="M250 35L250 115L250 35M196 116C186.611 116 179 108.389 179 99L179 51C179 41.6112 186.611 34 196 34L196 36C187.716 36 181 42.7157 181 51L181 99C181 107.284 187.716 114 196 114L196 116ZM179 51C179 41.6112 186.611 34 196 34L250 34L250 36L196 36C187.716 36 181 42.7157 181 51L179 51ZM250 116L196 116C186.611 116 179 108.389 179 99L181 99C181 107.284 187.716 114 196 114L250 114L250 116Z" fill="url(#paint1_linear_8851_223464)" mask="url(#path-1-inside-1_8851_223464)"/>
<mask id="path-3-inside-2_8851_223464" fill="white">
<path d="M0 115L1.21947e-06 35L54 35C62.8366 35 70 42.1634 70 51L70 99C70 107.837 62.8366 115 54 115L0 115Z"/>
</mask>
<path d="M0 115L1.21947e-06 35L54 35C62.8366 35 70 42.1634 70 51L70 99C70 107.837 62.8366 115 54 115L0 115Z" fill="url(#paint2_linear_8851_223464)" fill-opacity="0.5"/>
<path d="M0 115L1.21947e-06 35L0 115M54 34C63.3888 34 71 41.6112 71 51L71 99C71 108.389 63.3888 116 54 116L54 114C62.2843 114 69 107.284 69 99L69 51C69 42.7157 62.2843 36 54 36L54 34ZM71 99C71 108.389 63.3888 116 54 116L-1.52434e-08 116L1.52434e-08 114L54 114C62.2843 114 69 107.284 69 99L71 99ZM1.23471e-06 34L54 34C63.3888 34 71 41.6112 71 51L69 51C69 42.7157 62.2843 36 54 36L1.20422e-06 36L1.23471e-06 34Z" fill="url(#paint3_linear_8851_223464)" mask="url(#path-3-inside-2_8851_223464)"/>
<g opacity="0.2" filter="url(#filter0_f_8851_223464)">
<rect x="85" y="35" width="80" height="80" rx="12" fill="#C47C2F"/>
<rect x="85.5" y="35.5" width="79" height="79" rx="11.5" stroke="#D9D9D9"/>
</g>
<line opacity="0.4" x1="180.5" y1="-2.91704e-08" x2="180.5" y2="150" stroke="url(#paint4_linear_8851_223464)"/>
<line opacity="0.4" x1="250" y1="35.5" x2="1.20284e-08" y2="35.5" stroke="url(#paint5_linear_8851_223464)"/>
<line opacity="0.4" x1="250" y1="19.5" x2="1.20284e-08" y2="19.5" stroke="url(#paint6_linear_8851_223464)"/>
<line opacity="0.4" x1="250" y1="114.5" x2="1.20284e-08" y2="114.5" stroke="url(#paint7_linear_8851_223464)"/>
<line opacity="0.4" x1="250" y1="131.5" x2="1.20284e-08" y2="131.5" stroke="url(#paint8_linear_8851_223464)"/>
<line opacity="0.4" x1="85.5" y1="-2.91704e-08" x2="85.5" y2="150" stroke="url(#paint9_linear_8851_223464)"/>
<line opacity="0.4" x1="69.5" y1="-2.91704e-08" x2="69.5" y2="150" stroke="url(#paint10_linear_8851_223464)"/>
<line opacity="0.4" x1="164.5" y1="-2.91704e-08" x2="164.5" y2="150" stroke="url(#paint11_linear_8851_223464)"/>
<path d="M69.4951 16V23" stroke="#8D8D8D"/>
<path d="M66 19.5049L73 19.5049" stroke="#8D8D8D"/>
<path d="M180.495 16V23" stroke="#8D8D8D"/>
<path d="M177 19.5049L184 19.5049" stroke="#8D8D8D"/>
<path d="M69.4951 111V118" stroke="#8D8D8D"/>
<path d="M66 114.505L73 114.505" stroke="#8D8D8D"/>
<path d="M180.495 111V118" stroke="#8D8D8D"/>
<path d="M177 114.505L184 114.505" stroke="#8D8D8D"/>
<g clip-path="url(#clip0_8851_223464)">
<rect x="85" y="35" width="80" height="80" rx="12" fill="white"/>
<rect x="133" y="67" width="16" height="16" transform="rotate(-90 133 67)" fill="url(#paint12_linear_8851_223464)"/>
<rect x="85" y="99" width="16" height="16" transform="rotate(-90 85 99)" fill="url(#paint13_linear_8851_223464)"/>
<line opacity="0.4" x1="165" y1="51.25" x2="85" y2="51.25" stroke="url(#paint14_linear_8851_223464)" stroke-width="0.5"/>
<line opacity="0.4" x1="165" y1="67.25" x2="85" y2="67.25" stroke="url(#paint15_linear_8851_223464)" stroke-width="0.5"/>
<line opacity="0.4" x1="165" y1="83.25" x2="85" y2="83.25" stroke="url(#paint16_linear_8851_223464)" stroke-width="0.5"/>
<line opacity="0.4" x1="165" y1="99.25" x2="85" y2="99.25" stroke="url(#paint17_linear_8851_223464)" stroke-width="0.5"/>
<line opacity="0.4" x1="149.25" y1="115" x2="149.25" y2="35" stroke="url(#paint18_linear_8851_223464)" stroke-width="0.5"/>
<line opacity="0.4" x1="133.25" y1="115" x2="133.25" y2="35" stroke="url(#paint19_linear_8851_223464)" stroke-width="0.5"/>
<line opacity="0.4" x1="117.25" y1="115" x2="117.25" y2="35" stroke="url(#paint20_linear_8851_223464)" stroke-width="0.5"/>
<line opacity="0.4" x1="101.25" y1="115" x2="101.25" y2="35" stroke="url(#paint21_linear_8851_223464)" stroke-width="0.5"/>
<g filter="url(#filter1_dd_8851_223464)">
<rect x="110.303" y="66.5146" width="24" height="24" rx="6" transform="rotate(-15 110.303 66.5146)" fill="#FFF4E5"/>
</g>
<g clip-path="url(#clip1_8851_223464)">
<path fill-rule="evenodd" clip-rule="evenodd" d="M125.048 69.3784C125.306 69.3093 125.578 69.3328 125.819 69.4417L125.921 69.4933L128.491 70.9772C128.755 71.1297 128.948 71.3813 129.027 71.6758L131.055 79.2428C131.305 80.1764 130.751 81.136 129.817 81.3861L122.09 83.4567C121.156 83.7068 120.197 83.1528 119.947 82.2192L117.531 73.2043C117.281 72.2708 117.835 71.3111 118.769 71.0609L125.048 69.3784ZM119.157 72.5098C119.024 72.5455 118.944 72.6828 118.98 72.816L121.396 81.831C121.431 81.9644 121.568 82.0435 121.702 82.0078L129.429 79.9372C129.563 79.9015 129.642 79.7644 129.606 79.6311L127.816 72.9507L126.351 73.3432C125.738 73.5074 125.106 73.1432 124.942 72.5298L124.55 71.0648L119.157 72.5098ZM126.3 71.8038L126.726 71.6899L126.186 71.3784L126.3 71.8038Z" fill="#C47C2F"/>
<path d="M125.978 67.0585C126.17 67.0072 126.375 67.0342 126.547 67.1335L130.222 69.2549C130.394 69.3543 130.52 69.5182 130.571 69.7102L132.728 77.7593C132.835 78.1593 132.597 78.5705 132.198 78.6778C131.798 78.7848 131.386 78.5475 131.279 78.1475L129.203 70.3984L126.067 68.5878L120.249 70.1465C119.849 70.2537 119.438 70.0163 119.331 69.6162C119.224 69.2162 119.461 68.8048 119.861 68.6976L125.978 67.0585Z" fill="#C47C2F"/>
</g>
</g>
<rect x="85.5" y="35.5" width="79" height="79" rx="11.5" stroke="#C47C2F"/>
<defs>
<filter id="filter0_f_8851_223464" x="69" y="19" width="112" height="112" filterUnits="userSpaceOnUse" color-interpolation-filters="sRGB">
<feFlood flood-opacity="0" result="BackgroundImageFix"/>
<feBlend mode="normal" in="SourceGraphic" in2="BackgroundImageFix" result="shape"/>
<feGaussianBlur stdDeviation="8" result="effect1_foregroundBlur_8851_223464"/>
</filter>
<filter id="filter1_dd_8851_223464" x="109.65" y="59.6504" width="30.6997" height="30.6992" filterUnits="userSpaceOnUse" color-interpolation-filters="sRGB">
<feFlood flood-opacity="0" result="BackgroundImageFix"/>
<feColorMatrix in="SourceAlpha" type="matrix" values="0 0 0 0 0 0 0 0 0 0 0 0 0 0 0 0 0 0 127 0" result="hardAlpha"/>
<feMorphology radius="2" operator="dilate" in="SourceAlpha" result="effect1_dropShadow_8851_223464"/>
<feOffset/>
<feColorMatrix type="matrix" values="0 0 0 0 0.768627 0 0 0 0 0.486275 0 0 0 0 0.184314 0 0 0 1 0"/>
<feBlend mode="normal" in2="BackgroundImageFix" result="effect1_dropShadow_8851_223464"/>
<feColorMatrix in="SourceAlpha" type="matrix" values="0 0 0 0 0 0 0 0 0 0 0 0 0 0 0 0 0 0 127 0" result="hardAlpha"/>
<feMorphology radius="1" operator="dilate" in="SourceAlpha" result="effect2_dropShadow_8851_223464"/>
<feOffset/>
<feColorMatrix type="matrix" values="0 0 0 0 1 0 0 0 0 1 0 0 0 0 1 0 0 0 1 0"/>
<feBlend mode="normal" in2="effect1_dropShadow_8851_223464" result="effect2_dropShadow_8851_223464"/>
<feBlend mode="normal" in="SourceGraphic" in2="effect2_dropShadow_8851_223464" result="shape"/>
</filter>
<linearGradient id="paint0_linear_8851_223464" x1="250" y1="75" x2="180" y2="75" gradientUnits="userSpaceOnUse">
<stop stop-color="white" stop-opacity="0"/>
<stop offset="1" stop-color="#F9F9F9"/>
</linearGradient>
<linearGradient id="paint1_linear_8851_223464" x1="121.662" y1="32.75" x2="251.205" y2="70.9107" gradientUnits="userSpaceOnUse">
<stop stop-color="#EAEAEA"/>
<stop offset="1" stop-color="#EAEAEA" stop-opacity="0"/>
</linearGradient>
<linearGradient id="paint2_linear_8851_223464" x1="6.09734e-07" y1="75" x2="70" y2="75" gradientUnits="userSpaceOnUse">
<stop stop-color="white" stop-opacity="0"/>
<stop offset="1" stop-color="#F9F9F9"/>
</linearGradient>
<linearGradient id="paint3_linear_8851_223464" x1="128.338" y1="117.25" x2="-1.20462" y2="79.0893" gradientUnits="userSpaceOnUse">
<stop stop-color="#EAEAEA"/>
<stop offset="1" stop-color="#EAEAEA" stop-opacity="0"/>
</linearGradient>
<linearGradient id="paint4_linear_8851_223464" x1="179.5" y1="150" x2="179.5" y2="2.91706e-08" gradientUnits="userSpaceOnUse">
<stop stop-color="#F2F2F2"/>
<stop offset="0.5" stop-color="#BFBFBF"/>
<stop offset="1" stop-color="#F2F2F2"/>
</linearGradient>
<linearGradient id="paint5_linear_8851_223464" x1="-1.20284e-08" y1="34.5" x2="250" y2="34.5" gradientUnits="userSpaceOnUse">
<stop stop-color="#F2F2F2"/>
<stop offset="0.5" stop-color="#BFBFBF"/>
<stop offset="1" stop-color="#F2F2F2"/>
</linearGradient>
<linearGradient id="paint6_linear_8851_223464" x1="-1.20284e-08" y1="18.5" x2="250" y2="18.5" gradientUnits="userSpaceOnUse">
<stop stop-color="#F2F2F2"/>
<stop offset="0.5" stop-color="#BFBFBF"/>
<stop offset="1" stop-color="#F2F2F2"/>
</linearGradient>
<linearGradient id="paint7_linear_8851_223464" x1="-1.20284e-08" y1="113.5" x2="250" y2="113.5" gradientUnits="userSpaceOnUse">
<stop stop-color="#F2F2F2"/>
<stop offset="0.5" stop-color="#BFBFBF"/>
<stop offset="1" stop-color="#F2F2F2"/>
</linearGradient>
<linearGradient id="paint8_linear_8851_223464" x1="-1.20284e-08" y1="130.5" x2="250" y2="130.5" gradientUnits="userSpaceOnUse">
<stop stop-color="#F2F2F2"/>
<stop offset="0.5" stop-color="#BFBFBF"/>
<stop offset="1" stop-color="#F2F2F2"/>
</linearGradient>
<linearGradient id="paint9_linear_8851_223464" x1="84.5" y1="150" x2="84.5" y2="2.91706e-08" gradientUnits="userSpaceOnUse">
<stop stop-color="#F2F2F2"/>
<stop offset="0.5" stop-color="#BFBFBF"/>
<stop offset="1" stop-color="#F2F2F2"/>
</linearGradient>
<linearGradient id="paint10_linear_8851_223464" x1="68.5" y1="150" x2="68.5" y2="2.91706e-08" gradientUnits="userSpaceOnUse">
<stop stop-color="#F2F2F2"/>
<stop offset="0.5" stop-color="#BFBFBF"/>
<stop offset="1" stop-color="#F2F2F2"/>
</linearGradient>
<linearGradient id="paint11_linear_8851_223464" x1="163.5" y1="150" x2="163.5" y2="2.91706e-08" gradientUnits="userSpaceOnUse">
<stop stop-color="#F2F2F2"/>
<stop offset="0.5" stop-color="#BFBFBF"/>
<stop offset="1" stop-color="#F2F2F2"/>
</linearGradient>
<linearGradient id="paint12_linear_8851_223464" x1="141" y1="67" x2="141" y2="83" gradientUnits="userSpaceOnUse">
<stop stop-color="#F6F6F6"/>
<stop offset="1" stop-color="white" stop-opacity="0"/>
</linearGradient>
<linearGradient id="paint13_linear_8851_223464" x1="93" y1="99" x2="93" y2="115" gradientUnits="userSpaceOnUse">
<stop stop-color="#F6F6F6"/>
<stop offset="1" stop-color="white" stop-opacity="0"/>
</linearGradient>
<linearGradient id="paint14_linear_8851_223464" x1="85" y1="50.5" x2="165" y2="50.5" gradientUnits="userSpaceOnUse">
<stop stop-color="#F2F2F2"/>
<stop offset="0.480769" stop-color="#C1C1C1"/>
<stop offset="1" stop-color="#F2F2F2"/>
</linearGradient>
<linearGradient id="paint15_linear_8851_223464" x1="85" y1="66.5" x2="165" y2="66.5" gradientUnits="userSpaceOnUse">
<stop stop-color="#F2F2F2"/>
<stop offset="0.480769" stop-color="#C1C1C1"/>
<stop offset="1" stop-color="#F2F2F2"/>
</linearGradient>
<linearGradient id="paint16_linear_8851_223464" x1="85" y1="82.5" x2="165" y2="82.5" gradientUnits="userSpaceOnUse">
<stop stop-color="#F2F2F2"/>
<stop offset="0.480769" stop-color="#C1C1C1"/>
<stop offset="1" stop-color="#F2F2F2"/>
</linearGradient>
<linearGradient id="paint17_linear_8851_223464" x1="85" y1="98.5" x2="165" y2="98.5" gradientUnits="userSpaceOnUse">
<stop stop-color="#F2F2F2"/>
<stop offset="0.480769" stop-color="#C1C1C1"/>
<stop offset="1" stop-color="#F2F2F2"/>
</linearGradient>
<linearGradient id="paint18_linear_8851_223464" x1="150" y1="35" x2="150" y2="115" gradientUnits="userSpaceOnUse">
<stop stop-color="#F2F2F2"/>
<stop offset="0.480769" stop-color="#C1C1C1"/>
<stop offset="1" stop-color="#F2F2F2"/>
</linearGradient>
<linearGradient id="paint19_linear_8851_223464" x1="134" y1="35" x2="134" y2="115" gradientUnits="userSpaceOnUse">
<stop stop-color="#F2F2F2"/>
<stop offset="0.480769" stop-color="#C1C1C1"/>
<stop offset="1" stop-color="#F2F2F2"/>
</linearGradient>
<linearGradient id="paint20_linear_8851_223464" x1="118" y1="35" x2="118" y2="115" gradientUnits="userSpaceOnUse">
<stop stop-color="#F2F2F2"/>
<stop offset="0.480769" stop-color="#C1C1C1"/>
<stop offset="1" stop-color="#F2F2F2"/>
</linearGradient>
<linearGradient id="paint21_linear_8851_223464" x1="102" y1="35" x2="102" y2="115" gradientUnits="userSpaceOnUse">
<stop stop-color="#F2F2F2"/>
<stop offset="0.480769" stop-color="#C1C1C1"/>
<stop offset="1" stop-color="#F2F2F2"/>
</linearGradient>
<clipPath id="clip0_8851_223464">
<rect x="85" y="35" width="80" height="80" rx="12" fill="white"/>
</clipPath>
<clipPath id="clip1_8851_223464">
<rect width="16" height="16" fill="white" transform="translate(115.202 69.3428) rotate(-15)"/>
</clipPath>
</defs>
</svg>
